<?xml version="1.0" encoding="UTF-8" standalone="no"?>
<!-- Uploaded to: SVG Repo, www.svgrepo.com, Generator: SVG Repo Mixer Tools -->

<svg
   width="199.99998"
   height="200"
   version="1.1"
   id="svg17"
   sodipodi:docname="condamamba.svg"
   inkscape:version="1.3 (0e150ed, 2023-07-21)"
   viewBox="0 0 7.9999994 8"
   inkscape:export-filename="condamamba.png"
   inkscape:export-xdpi="96"
   inkscape:export-ydpi="96"
   xmlns:inkscape="http://www.inkscape.org/namespaces/inkscape"
   xmlns:sodipodi="http://sodipodi.sourceforge.net/DTD/sodipodi-0.dtd"
   xmlns="http://www.w3.org/2000/svg"
   xmlns:svg="http://www.w3.org/2000/svg"
   xmlns:rdf="http://www.w3.org/1999/02/22-rdf-syntax-ns#"
   xmlns:cc="http://creativecommons.org/ns#"
   xmlns:dc="http://purl.org/dc/elements/1.1/">
  <defs
     id="defs2" />
  <sodipodi:namedview
     inkscape:zoom="0.91406302"
     inkscape:cx="191.99989"
     inkscape:cy="184.34178"
     inkscape:window-width="2176"
     inkscape:window-height="1060"
     inkscape:window-x="884"
     inkscape:window-y="30"
     inkscape:window-maximized="0"
     inkscape:current-layer="svg17"
     id="namedview2"
     pagecolor="#ffffff"
     bordercolor="#000000"
     borderopacity="0.25"
     inkscape:showpageshadow="2"
     inkscape:pageopacity="0.0"
     inkscape:pagecheckerboard="0"
     inkscape:deskcolor="#d1d1d1" />
  <title
     id="title2">file_type_conda</title>
  <metadata
     id="metadata2">
    <rdf:RDF>
      <cc:Work>
        <dc:title>file_type_conda</dc:title>
      </cc:Work>
    </rdf:RDF>
  </metadata>
  <g
     id="g5"
     transform="translate(12.971082,6.0827316)">
    <path
       d="m -6.8460825,-6.0827316 h -4.2499995 c -1.035534,0 -1.875,0.8394656 -1.875,1.875 v 4.25 c 0,1.0355313 0.839466,1.875 1.875,1.875 h 4.2499995 c 1.0355312,0 1.875,-0.8394687 1.875,-1.875 v -4.25 c 0,-1.0355344 -0.8394688,-1.875 -1.875,-1.875 z"
       fill="#242938"
       id="path1-4"
       clip-path="none"
       style="clip-rule:evenodd;fill:#096fa3;fill-opacity:1;fill-rule:evenodd;stroke-width:0.04;image-rendering:optimizeQuality;shape-rendering:geometricPrecision;text-rendering:geometricPrecision" />
    <g
       id="g4"
       transform="translate(-0.2442518)">
      <g
         id="g3"
         transform="translate(-15.213667,-12.165463)">
        <path
           d="m 7.9386033,10.391699 c 0.056721,0.152966 0.1046691,0.311197 0.1438157,0.474692 -0.073576,0.06677 -0.1502874,0.07635 -0.2301051,0.02877 -0.014525,-0.172328 0.014238,-0.340139 0.086289,-0.503462 z"
           id="path40"
           style="clip-rule:evenodd;fill-rule:evenodd;stroke-width:0.0399999;image-rendering:optimizeQuality;shape-rendering:geometricPrecision;text-rendering:geometricPrecision"
           clip-path="none" />
        <path
           d="m 9.0316026,10.36293 c 0.067306,0.148679 0.1152252,0.30691 0.1438157,0.474692 -0.05255,0.0981 -0.1292615,0.122068 -0.2301051,0.07192 0.010211,-0.185245 0.038974,-0.367469 0.086289,-0.546615 z"
           id="path39"
           style="clip-rule:evenodd;fill-rule:evenodd;stroke-width:0.0399999;image-rendering:optimizeQuality;shape-rendering:geometricPrecision;text-rendering:geometricPrecision"
           clip-path="none" />
        <path
           d="m 6.8168408,10.36293 c 0.062379,0.145227 0.1103182,0.298653 0.1438157,0.460308 -0.00311,0.0271 -0.012699,0.05106 -0.028763,0.07192 -0.093359,0.05204 -0.1700592,0.03288 -0.2301051,-0.05754 0.045279,-0.157166 0.083629,-0.315397 0.1150525,-0.474692 z"
           id="path38"
           style="clip-rule:evenodd;fill-rule:evenodd;stroke-width:0.0399999;image-rendering:optimizeQuality;shape-rendering:geometricPrecision;text-rendering:geometricPrecision"
           clip-path="none" />
        <path
           d="m 6.241578,10.276623 c 0.00959,0.01918 0.019176,0.03836 0.028763,0.05754 -0.012009,0.02077 -0.031185,0.03516 -0.057526,0.04315 -0.3348375,0.04131 -0.6704084,0.04131 -1.0067099,0 -0.044816,-0.006 -0.083169,-0.02043 -0.1150526,-0.04315 0.2882326,0.02906 0.575864,0.02906 0.8628943,0 0.037133,0.0068 0.065896,-0.0028 0.086289,-0.02877 0.069115,0.0015 0.136228,-0.0081 0.2013422,-0.02877 z"
           id="path37"
           style="clip-rule:evenodd;fill-rule:evenodd;stroke-width:0.0399999;image-rendering:optimizeQuality;shape-rendering:geometricPrecision;text-rendering:geometricPrecision"
           clip-path="none" />
        <path
           d="m 7.3633405,9.7587768 c 0.079893,-0.01376 0.1374188,0.015009 0.1725789,0.086308 -0.074396,0.028194 -0.1510957,0.037786 -0.2301052,0.028769 7.795e-4,-0.048888 0.019956,-0.087245 0.057526,-0.115077 z"
           id="path36"
           style="clip-rule:evenodd;fill-rule:evenodd;stroke-width:0.0399999;image-rendering:optimizeQuality;shape-rendering:geometricPrecision;text-rendering:geometricPrecision"
           clip-path="none" />
        <path
           d="m 7.3921036,9.9026228 c 0.061694,0.00684 0.1096308,0.035608 0.1438158,0.086308 -0.034939,0.1288542 -0.078083,0.2535222 -0.1294342,0.3739992 -0.038249,-0.143394 -0.071804,-0.28724 -0.100671,-0.4315376 0.037133,0.00683 0.065896,-0.00276 0.086289,-0.02877 z"
           id="path35"
           style="clip-rule:evenodd;fill-rule:evenodd;stroke-width:0.0399999;image-rendering:optimizeQuality;shape-rendering:geometricPrecision;text-rendering:geometricPrecision"
           clip-path="none" />
        <path
           d="M 8.3988136,9.7587768 C 8.4955726,9.7383308 8.5626772,9.7718958 8.6001555,9.859469 8.5159945,9.865739 8.4344798,9.88012 8.3556688,9.902623 8.3521588,9.851368 8.3665408,9.803421 8.3988136,9.7587768 Z"
           id="path34"
           style="clip-rule:evenodd;fill-rule:evenodd;stroke-width:0.0399999;image-rendering:optimizeQuality;shape-rendering:geometricPrecision;text-rendering:geometricPrecision"
           clip-path="none" />
        <path
           d="m 8.4275767,9.9026228 c 0.078926,-0.00862 0.1268742,0.024943 0.1438157,0.1006922 -0.026807,0.131242 -0.060374,0.260704 -0.100671,0.388384 -0.040786,-0.127073 -0.074324,-0.256535 -0.100671,-0.388384 0.010412,-0.041264 0.029568,-0.074826 0.057526,-0.1006922 z"
           id="path33"
           style="clip-rule:evenodd;fill-rule:evenodd;stroke-width:0.0399999;image-rendering:optimizeQuality;shape-rendering:geometricPrecision;text-rendering:geometricPrecision"
           clip-path="none" />
        <path
           style="clip-rule:evenodd;fill-rule:evenodd;stroke-width:0.0399999;image-rendering:optimizeQuality;shape-rendering:geometricPrecision;text-rendering:geometricPrecision"
           fill="#010101"
           d="m 6.644262,9.9026228 c -0.017758,0.00318 -0.03214,0.012774 -0.043145,0.028769 -0.034919,-0.044558 -0.078063,-0.078123 -0.1294341,-0.1006923 -0.268455,-0.01918 -0.5369129,-0.01918 -0.805368,0 -0.2066804,0.072052 -0.417612,0.1295909 -0.632789,0.1726155 -0.075346,0.100638 -0.075346,0.20133 0,0.302077 0.00983,0.02411 0.029005,0.03371 0.057526,0.02877 0.031884,0.02273 0.070237,0.03711 0.1150526,0.04315 0.3363015,0.04131 0.6718724,0.04131 1.0067099,0 0.026341,-0.008 0.045518,-0.02238 0.057526,-0.04315 0.084213,0.02008 0.1705021,0.02486 0.2588682,0.01439 -0.041154,0.01338 -0.074712,0.03737 -0.1006709,0.07192 -0.022944,0.09761 -0.051708,0.193501 -0.08629,0.287692 -0.046096,0.416866 0.1360698,0.656599 0.5464997,0.71923 0.232084,-0.013 0.4094548,-0.118472 0.5321181,-0.316461 0.349616,0.41793 0.6995483,0.41793 1.0498546,0 0.2956563,0.388902 0.621629,0.417671 0.9779468,0.08631 0.094947,-0.160474 0.1237102,-0.33309 0.086289,-0.517845 -0.05278,-0.172788 -0.1055032,-0.345409 -0.1581973,-0.517846 0.00141,-0.103673 0.049358,-0.1755963 0.1438157,-0.2157696 0.1541417,-0.010325 0.3075643,-0.010325 0.4602103,0 C 9.8335477,9.8871134 9.6849574,9.8343708 9.5349576,9.787546 9.163683,9.8924875 9.063012,10.117845 9.2329446,10.463622 c -0.0048,0.01438 -0.00958,0.02877 -0.014382,0.04315 -0.024794,-0.04566 -0.043979,-0.09361 -0.057526,-0.143846 0.017402,0.162201 0.041361,0.325236 0.071908,0.489077 0.0021,0.121406 -0.055427,0.188553 -0.1725788,0.201384 -0.1399902,-0.02048 -0.1975165,-0.102015 -0.1725789,-0.244538 0.026002,-0.183116 0.069147,-0.360536 0.1294342,-0.53223 C 9.093242,10.027493 9.074057,9.7877503 8.9596948,9.5573923 8.7198102,9.3062716 8.4465604,9.2631178 8.1399453,9.4279309 8.0524191,9.5025381 7.9900893,9.5936415 7.9529849,9.7012384 7.7359382,9.331672 7.4339339,9.2405685 7.046946,9.4279309 6.9811388,9.5068535 6.9188206,9.5883681 6.8599856,9.6724692 c -0.019176,0.1917957 -0.019176,0.3835888 0,0.5753838 0.070018,0.197386 0.1227524,0.39877 0.1581972,0.604154 -0.014077,0.16059 -0.1003661,0.222932 -0.2588682,0.187 -0.1067573,-0.07359 -0.1403153,-0.174284 -0.100671,-0.302077 0.051981,-0.160762 0.095125,-0.323798 0.1294341,-0.489077 0.0046,-0.05335 -0.01458,-0.09171 -0.057526,-0.115076 -0.0037,-0.04937 -0.013289,-0.09732 -0.028763,-0.1438465 0,-0.00959 0,-0.019181 0,-0.028769 0.017758,0.00318 0.03214,0.012774 0.043145,0.028769 C 6.7717374,9.4632767 7.0449872,9.2283272 7.5646825,9.2840848 7.7253534,9.3295661 7.8547875,9.4206667 7.9529849,9.5573923 8.1540392,9.2875573 8.4177109,9.2060455 8.7439712,9.312854 9.026454,9.4606069 9.1558882,9.6955565 9.1322736,10.0177 9.2132131,9.8546933 9.3426472,9.7683857 9.520576,9.7587768 c 0.2721568,0.027475 0.521447,0.118578 0.747842,0.2733072 -0.196683,-0.0012 -0.3932212,-0.01555 -0.5896447,-0.043153 -0.076826,-0.0065 -0.1439308,0.012684 -0.201342,0.057538 -0.019185,0.08631 -0.019185,0.172615 0,0.258923 0.1076604,0.229204 0.1460305,0.468967 0.1150526,0.71923 C 9.4369328,11.415653 9.1540761,11.554695 8.7439712,11.441776 8.6256972,11.390595 8.5346331,11.309092 8.4707214,11.197237 8.2770879,11.456764 8.0229944,11.538268 7.7084982,11.441776 7.6004178,11.386452 7.5045416,11.314529 7.4208668,11.226007 7.0899641,11.55924 6.7496013,11.56882 6.3997753,11.254776 6.24402,11.005491 6.2296385,10.746568 6.3566306,10.478007 c -0.00959,-0.01919 -0.019176,-0.03835 -0.028763,-0.05754 -0.4009927,0.07184 -0.8036767,0.07664 -1.2080519,0.01438 -0.189552,-0.08254 -0.2518722,-0.221592 -0.1869604,-0.417153 0.025959,-0.034564 0.059516,-0.05854 0.100671,-0.071923 0.2145327,-0.045979 0.4254615,-0.1035174 0.632789,-0.1726153 0.2780447,-0.01918 0.5560865,-0.01918 0.8341311,0 0.062143,0.028651 0.1100823,0.071805 0.1438157,0.1294614 z m 1.7833147,0 c -0.027958,0.025866 -0.047114,0.059429 -0.057526,0.1006922 0.026347,0.131849 0.059885,0.261311 0.100671,0.388384 0.040297,-0.12768 0.073864,-0.257142 0.100671,-0.388384 -0.016941,-0.075749 -0.06489,-0.1093143 -0.143816,-0.1006922 z m -0.028763,-0.143846 c -0.032272,0.044644 -0.046654,0.092591 -0.043145,0.143846 C 8.4344798,9.8801196 8.5159946,9.865735 8.6001555,9.859469 8.5626772,9.7718956 8.4955728,9.7383305 8.3988137,9.7587768 Z m -1.00671,0.143846 c -0.020393,0.026007 -0.049156,0.035596 -0.086289,0.028769 0.028867,0.1442982 0.062422,0.2881442 0.100671,0.4315382 0.051351,-0.120477 0.094496,-0.245145 0.1294342,-0.3739998 -0.034185,-0.0507 -0.082122,-0.079469 -0.1438162,-0.086307 z m -0.028763,-0.143846 c -0.03757,0.027831 -0.056747,0.066189 -0.057526,0.1150768 0.079009,0.00902 0.1557093,-5.753e-4 0.2301052,-0.028769 C 7.5007593,9.7737857 7.443233,9.7450165 7.3633407,9.7587768 Z M 6.241578,10.276623 c 0.00959,0.01918 0.019176,0.03836 0.028763,0.05754 -0.012009,0.02077 -0.031185,0.03516 -0.057526,0.04315 -0.3348375,0.04131 -0.6704084,0.04131 -1.0067099,0 -0.044816,-0.006 -0.083169,-0.02043 -0.1150526,-0.04315 0.2882326,0.02906 0.575864,0.02906 0.8628943,0 0.037133,0.0068 0.065896,-0.0028 0.086289,-0.02877 0.069115,0.0015 0.136228,-0.0081 0.2013422,-0.02877 z m 0.5752628,0.08631 c -0.031424,0.159295 -0.069774,0.317526 -0.1150525,0.474692 0.060046,0.09042 0.1367457,0.109582 0.2301051,0.05754 0.016064,-0.02086 0.025651,-0.04482 0.028763,-0.07192 C 6.927159,10.661583 6.8792195,10.508157 6.8168408,10.36293 Z m 2.2147618,0 c -0.047315,0.179146 -0.076078,0.36137 -0.086289,0.546615 0.1008436,0.05015 0.1775549,0.02618 0.2301051,-0.07192 -0.02859,-0.167782 -0.07651,-0.326013 -0.1438157,-0.474692 z m -1.0929993,0.02877 c -0.072052,0.163323 -0.1008148,0.331134 -0.086289,0.503462 0.079818,0.04758 0.156529,0.038 0.2301051,-0.02877 C 8.0432724,10.7029 7.9953244,10.544669 7.9386033,10.391703 Z"
           id="path2-5"
           clip-path="none" />
        <path
           style="clip-rule:evenodd;fill-rule:evenodd;stroke-width:0.0399999;image-rendering:optimizeQuality;shape-rendering:geometricPrecision;text-rendering:geometricPrecision"
           fill="#1a1a19"
           d="m 6.2703412,10.334161 c -0.00959,-0.01918 -0.019176,-0.03836 -0.028763,-0.05754 -0.011991,-0.01795 -0.031168,-0.02754 -0.057526,-0.02877 -0.07324,0.008 -0.1211791,0.02717 -0.1438157,0.05754 -0.020393,0.02601 -0.049156,0.0356 -0.086289,0.02877 -0.3016362,-0.02861 -0.608444,-0.0382 -0.9204205,-0.02877 -0.075346,-0.100747 -0.075346,-0.201439 0,-0.302077 0.215177,-0.043024 0.4261086,-0.1005627 0.632789,-0.1726152 0.2684551,-0.01918 0.536913,-0.01918 0.805368,0 0.051371,0.022569 0.094516,0.056135 0.1294341,0.1006923 0.011005,-0.015996 0.025386,-0.025585 0.043145,-0.028769 0.028763,0.00959 0.04794,0.028769 0.057526,0.057538 0,0.00959 0,0.01918 0,0.028769 -0.033368,0.048021 -0.033368,0.1007649 0,0.1582309 -0.060848,0.196833 -0.1183747,0.393419 -0.1725789,0.589769 -0.00475,0.105928 4.03e-5,0.211396 0.014382,0.316461 0.010838,0.04148 0.034806,0.07026 0.071908,0.08631 -0.049349,-0.128656 -0.068525,-0.262893 -0.057526,-0.402769 0.06822,-0.195487 0.1257467,-0.396871 0.1725788,-0.604153 0.042946,0.02336 0.062123,0.06172 0.057526,0.115076 -0.034309,0.165279 -0.077453,0.328315 -0.1294341,0.489077 -0.039644,0.127793 -0.00609,0.228485 0.100671,0.302077 0.1585021,0.03593 0.2447915,-0.02641 0.2588682,-0.187 -0.035445,-0.205384 -0.088179,-0.406768 -0.1581972,-0.604154 -0.019176,-0.191795 -0.019176,-0.3835885 0,-0.5753842 C 6.9188206,9.5883681 6.9811388,9.5068535 7.046946,9.4279309 7.4339339,9.2405685 7.7359382,9.331672 7.9529849,9.7012384 7.9900893,9.5936415 8.0524191,9.5025381 8.1399453,9.4279309 8.4465604,9.2631178 8.7198102,9.3062716 8.9596948,9.5573923 c 0.1143622,0.230358 0.1335472,0.4701007 0.057526,0.7192307 -0.060288,0.171694 -0.1034323,0.349114 -0.1294342,0.53223 -0.024938,0.142523 0.032589,0.224055 0.1725789,0.244538 0.1171522,-0.01283 0.1746785,-0.07998 0.1725788,-0.201384 -0.030546,-0.163841 -0.054506,-0.326876 -0.071908,-0.489077 0.013547,0.05023 0.032732,0.09819 0.057526,0.143846 0.0048,-0.01438 0.00958,-0.02877 0.014382,-0.04315 -0.1699326,-0.345777 -0.069262,-0.5711345 0.302013,-0.676076 0.1499998,0.046825 0.2985901,0.099567 0.4458287,0.1582307 -0.152646,-0.010325 -0.3060686,-0.010325 -0.4602103,0 -0.094458,0.040173 -0.1424063,0.1120963 -0.1438157,0.2157693 0.052694,0.172437 0.1054169,0.345058 0.1581973,0.517846 0.037421,0.184755 0.00866,0.357371 -0.086289,0.517845 -0.3563178,0.331364 -0.6822905,0.302595 -0.9779468,-0.08631 -0.3503063,0.41793 -0.7002386,0.41793 -1.0498546,0 -0.1226633,0.197989 -0.3000341,0.303457 -0.5321181,0.316461 -0.4104299,-0.06263 -0.5925955,-0.302364 -0.5464997,-0.71923 0.034582,-0.09419 0.063345,-0.190078 0.08629,-0.287692 0.025959,-0.03455 0.059517,-0.05855 0.1006709,-0.07192 -0.088366,0.01047 -0.1746555,0.0057 -0.2588682,-0.01439 z M 8.4275767,9.9026228 c -0.027958,0.025866 -0.047114,0.059429 -0.057526,0.1006922 0.026347,0.131849 0.059885,0.261311 0.100671,0.388384 0.040297,-0.12768 0.073864,-0.257142 0.100671,-0.388384 -0.016941,-0.075749 -0.06489,-0.1093143 -0.143816,-0.1006922 z m -0.028763,-0.143846 c -0.032272,0.044644 -0.046654,0.092591 -0.043145,0.143846 C 8.4344798,9.8801196 8.5159946,9.865735 8.6001555,9.859469 8.5626772,9.7718956 8.4955728,9.7383305 8.3988137,9.7587768 Z m -1.00671,0.143846 c -0.020393,0.026007 -0.049156,0.035596 -0.086289,0.028769 0.028867,0.1442982 0.062422,0.2881442 0.100671,0.4315382 0.051351,-0.120477 0.094496,-0.245145 0.1294342,-0.3739998 -0.034185,-0.0507 -0.082122,-0.079469 -0.1438162,-0.086307 z m -0.028763,-0.143846 c -0.03757,0.027831 -0.056747,0.066189 -0.057526,0.1150768 0.079009,0.00902 0.1557093,-5.753e-4 0.2301052,-0.028769 C 7.5007593,9.7737857 7.443233,9.7450165 7.3633407,9.7587768 Z M 6.8168408,10.36293 c -0.031424,0.159295 -0.069774,0.317526 -0.1150525,0.474692 0.060046,0.09042 0.1367457,0.109582 0.2301051,0.05754 0.016064,-0.02086 0.025651,-0.04482 0.028763,-0.07192 C 6.927159,10.661583 6.8792195,10.508157 6.8168408,10.36293 Z m 2.2147618,0 c -0.047315,0.179146 -0.076078,0.36137 -0.086289,0.546615 0.1008436,0.05015 0.1775549,0.02618 0.2301051,-0.07192 -0.02859,-0.167782 -0.07651,-0.326013 -0.1438157,-0.474692 z M 7.9386033,10.3917 c -0.072052,0.163323 -0.1008148,0.331134 -0.086289,0.503462 0.079818,0.04758 0.156529,0.038 0.2301051,-0.02877 C 8.0432724,10.702897 7.9953244,10.544666 7.9386033,10.3917 Z"
           id="path3-0"
           clip-path="none" />
        <path
           style="clip-rule:evenodd;fill-rule:evenodd;stroke-width:0.0399999;image-rendering:optimizeQuality;shape-rendering:geometricPrecision;text-rendering:geometricPrecision"
           fill="#dedede"
           d="M 5.7238415,9.9313921 C 5.8578346,9.9174275 5.8961874,9.970173 5.8388941,10.089623 5.7016421,10.112937 5.6632894,10.060195 5.7238415,9.9313921 Z"
           id="path4-3"
           clip-path="none" />
        <path
           style="clip-rule:evenodd;fill-rule:evenodd;stroke-width:0.0399999;image-rendering:optimizeQuality;shape-rendering:geometricPrecision;text-rendering:geometricPrecision"
           fill="#949493"
           d="m 8.7727344,9.6149307 c 0.020767,0.012011 0.035149,0.031192 0.043145,0.057538 0.024132,0.2033033 0.014554,0.4046873 -0.028763,0.6041543 0.020997,-0.220698 0.016194,-0.4412602 -0.014382,-0.6616923 z"
           id="path5-7"
           clip-path="none" />
        <path
           style="clip-rule:evenodd;fill-rule:evenodd;stroke-width:0.0399999;image-rendering:optimizeQuality;shape-rendering:geometricPrecision;text-rendering:geometricPrecision"
           fill="#9e9e9d"
           d="m 7.1332354,9.5861615 c -0.046562,0.1580667 -0.070533,0.3210903 -0.071908,0.4890765 -0.019176,-0.1342572 -0.019176,-0.2685116 0,-0.4027688 0.010838,-0.041494 0.034806,-0.070263 0.071908,-0.086308 z"
           id="path6-2"
           clip-path="none" />
        <path
           style="clip-rule:evenodd;fill-rule:evenodd;stroke-width:0.0399999;image-rendering:optimizeQuality;shape-rendering:geometricPrecision;text-rendering:geometricPrecision"
           fill="#020202"
           d="m 8.3700504,9.7012384 c 0.1686671,-0.044457 0.2645634,0.017874 0.2876314,0.1869998 -0.1253785,0.8242088 -0.2500092,0.8242088 -0.3739208,0 -0.00314,-0.07801 0.025628,-0.1403448 0.086289,-0.1869998 z m 0.057526,0.2013844 c -0.027958,0.025866 -0.047114,0.059429 -0.057526,0.1006922 0.026347,0.131849 0.059885,0.261311 0.100671,0.388384 0.040297,-0.12768 0.073864,-0.257142 0.100671,-0.388384 -0.016941,-0.075749 -0.06489,-0.1093143 -0.143816,-0.1006922 z m -0.028763,-0.143846 c -0.032272,0.044644 -0.046654,0.092591 -0.043145,0.143846 C 8.4344798,9.8801196 8.5159946,9.865735 8.6001555,9.859469 8.5626772,9.7718956 8.4955728,9.7383305 8.3988134,9.7587768 Z"
           id="path7-1"
           clip-path="none" />
        <path
           style="clip-rule:evenodd;fill-rule:evenodd;stroke-width:0.0399999;image-rendering:optimizeQuality;shape-rendering:geometricPrecision;text-rendering:geometricPrecision"
           fill="#010101"
           d="m 7.3345774,9.7012384 c 0.1564139,-0.030185 0.2427033,0.03215 0.2588682,0.1869998 -0.024103,0.2163988 -0.08163,0.4225798 -0.1725788,0.6185378 -0.016855,-0.006 -0.031237,-0.01562 -0.043145,-0.02877 -0.05725,-0.200285 -0.1099816,-0.40167 -0.1581973,-0.6041534 0.010533,-0.079285 0.048883,-0.1368235 0.1150526,-0.1726152 z m 0.057526,0.2013844 c -0.020393,0.026007 -0.049156,0.035596 -0.086289,0.028769 0.028867,0.1442982 0.062422,0.2881442 0.100671,0.4315382 0.051351,-0.120477 0.094496,-0.245145 0.1294342,-0.3739998 -0.034185,-0.0507 -0.082122,-0.079469 -0.1438162,-0.086307 z m -0.028763,-0.143846 c -0.03757,0.027831 -0.056747,0.066189 -0.057526,0.1150768 0.079009,0.00902 0.1557093,-5.753e-4 0.2301052,-0.028769 -0.03516,-0.071299 -0.092686,-0.1000679 -0.1725792,-0.086308 z"
           id="path8-0"
           clip-path="none" />
        <path
           style="clip-rule:evenodd;fill-rule:evenodd;stroke-width:0.0399999;image-rendering:optimizeQuality;shape-rendering:geometricPrecision;text-rendering:geometricPrecision"
           fill="#8d8d8c"
           d="m 7.2195248,9.4998539 c -0.019176,0.038358 -0.04794,0.067127 -0.086289,0.086308 0,-0.057538 0.028763,-0.086308 0.086289,-0.086308 z"
           id="path9-7"
           clip-path="none" />
        <path
           style="clip-rule:evenodd;fill-rule:evenodd;stroke-width:0.0399999;image-rendering:optimizeQuality;shape-rendering:geometricPrecision;text-rendering:geometricPrecision"
           fill="#8f8f8d"
           d="m 8.3700504,9.4135463 c 0.1150238,-0.011761 0.2204982,0.012215 0.3163946,0.071923 -0.070614,-0.00722 -0.1425214,-0.0216 -0.2157236,-0.043154 -0.080508,0.00922 -0.1524159,0.03799 -0.2157235,0.086308 -0.00958,-0.0048 -0.019185,-0.00959 -0.028763,-0.014385 0.04185,-0.04677 0.089799,-0.080335 0.1438155,-0.100692 z"
           id="path10-8"
           clip-path="none" />
        <path
           style="clip-rule:evenodd;fill-rule:evenodd;stroke-width:0.0399999;image-rendering:optimizeQuality;shape-rendering:geometricPrecision;text-rendering:geometricPrecision"
           fill="#80807f"
           d="M 7.679735,9.5286231 C 7.5319184,9.434168 7.3785159,9.4245793 7.2195248,9.4998539 7.2722131,9.4309747 7.344121,9.4022055 7.4352484,9.4135463 7.54244,9.4024673 7.6239346,9.4408252 7.679735,9.5286231 Z"
           id="path11-5"
           clip-path="none" />
        <path
           style="clip-rule:evenodd;fill-rule:evenodd;stroke-width:0.0399999;image-rendering:optimizeQuality;shape-rendering:geometricPrecision;text-rendering:geometricPrecision"
           fill="#8d8d8c"
           d="M 8.283761,10.334161 C 8.1478552,10.100043 8.1143173,9.8507117 8.18309,9.5861615 8.1666662,9.8405619 8.2002328,10.089893 8.283761,10.334161 Z"
           id="path12-7"
           clip-path="none" />
        <path
           style="clip-rule:evenodd;fill-rule:evenodd;stroke-width:0.0399999;image-rendering:optimizeQuality;shape-rendering:geometricPrecision;text-rendering:geometricPrecision"
           fill="#939391"
           d="m 7.679735,9.5286231 c 0.035954,0.00223 0.059914,0.021404 0.071908,0.057538 C 7.828297,9.8715488 7.79473,10.140064 7.650972,10.391699 7.709591,10.219383 7.747961,10.041972 7.7660246,9.8594686 7.7692746,9.7399095 7.7405116,9.6296257 7.679735,9.5286231 Z"
           id="path13-4"
           clip-path="none" />
        <path
           style="clip-rule:evenodd;fill-rule:evenodd;stroke-width:0.0399999;image-rendering:optimizeQuality;shape-rendering:geometricPrecision;text-rendering:geometricPrecision"
           fill="#797979"
           d="m 6.44292,10.104007 c 0.036633,0.01983 0.036633,0.04381 0,0.07192 -0.044422,0.03415 -0.092361,0.04374 -0.1438157,0.02877 0.059954,-0.02006 0.1078934,-0.05362 0.1438157,-0.100693 z"
           id="path14-6"
           clip-path="none" />
        <path
           style="clip-rule:evenodd;fill-rule:evenodd;stroke-width:0.0399999;image-rendering:optimizeQuality;shape-rendering:geometricPrecision;text-rendering:geometricPrecision"
           fill="#7d7d7a"
           d="m 9.2904709,10.36293 c -0.1259538,-0.155425 -0.1115722,-0.299272 0.043145,-0.4315379 -0.040067,0.066929 -0.064027,0.1436449 -0.071908,0.2301539 0.00728,0.06785 0.016855,0.134976 0.028763,0.201384 z"
           id="path15-1"
           clip-path="none" />
        <path
           style="clip-rule:evenodd;fill-rule:evenodd;stroke-width:0.0399999;image-rendering:optimizeQuality;shape-rendering:geometricPrecision;text-rendering:geometricPrecision"
           fill="#9e9e9a"
           d="m 7.0757091,10.104007 c 0.040412,0.04963 0.054794,0.107168 0.043145,0.172616 -0.032445,-0.05309 -0.046826,-0.110627 -0.043145,-0.172616 z"
           id="path16-0"
           clip-path="none" />
        <path
           style="clip-rule:evenodd;fill-rule:evenodd;stroke-width:0.0399999;image-rendering:optimizeQuality;shape-rendering:geometricPrecision;text-rendering:geometricPrecision"
           fill="#020202"
           d="m 7.9098402,10.219084 c 0.028648,-0.0025 0.052608,0.0071 0.071908,0.02877 0.078581,0.22558 0.1265291,0.455733 0.1438157,0.690461 -0.08652,0.126642 -0.1919939,0.145832 -0.3163945,0.05754 -0.028332,-0.05368 -0.042713,-0.111222 -0.043145,-0.172615 0.037018,-0.204319 0.084937,-0.405704 0.1438157,-0.604154 z m 0.028763,0.172615 c -0.072052,0.163323 -0.1008148,0.331134 -0.086289,0.503462 0.079818,0.04758 0.156529,0.038 0.2301051,-0.02877 -0.039147,-0.163495 -0.087095,-0.321726 -0.1438161,-0.474692 z"
           id="path17-5"
           clip-path="none" />
        <path
           style="clip-rule:evenodd;fill-rule:evenodd;stroke-width:0.0399999;image-rendering:optimizeQuality;shape-rendering:geometricPrecision;text-rendering:geometricPrecision"
           fill="#969695"
           d="m 6.241578,10.276623 c -0.065114,0.02067 -0.132227,0.03026 -0.2013419,0.02877 0.022637,-0.03037 0.070576,-0.04955 0.1438157,-0.05754 0.026359,0.0012 0.045535,0.01082 0.057526,0.02877 z"
           id="path18"
           clip-path="none" />
        <path
           style="clip-rule:evenodd;fill-rule:evenodd;stroke-width:0.0399999;image-rendering:optimizeQuality;shape-rendering:geometricPrecision;text-rendering:geometricPrecision"
           fill="#aeaead"
           d="m 5.0335262,10.305392 c 0.3119765,-0.0094 0.6187843,1.61e-4 0.9204205,0.02877 -0.2870303,0.02906 -0.5746617,0.02906 -0.8628943,0 -0.028522,0.0049 -0.047698,-0.0047 -0.057526,-0.02877 z"
           id="path19"
           clip-path="none" />
        <path
           style="clip-rule:evenodd;fill-rule:evenodd;stroke-width:0.0399999;image-rendering:optimizeQuality;shape-rendering:geometricPrecision;text-rendering:geometricPrecision"
           fill="#80807f"
           d="m 6.7017883,9.9889305 c 0.015475,0.046525 0.025061,0.094475 0.028763,0.1438465 -0.046832,0.207282 -0.1043584,0.408666 -0.1725788,0.604153 -0.00959,0 -0.019176,0 -0.028763,0 0.054204,-0.19635 0.1117305,-0.392936 0.1725789,-0.589769 -0.033368,-0.05747 -0.033368,-0.110209 -1e-7,-0.1582305 z"
           id="path20"
           clip-path="none" />
        <path
           style="clip-rule:evenodd;fill-rule:evenodd;stroke-width:0.0399999;image-rendering:optimizeQuality;shape-rendering:geometricPrecision;text-rendering:geometricPrecision"
           fill="#888886"
           d="m 7.2195248,11.08216 c 0.00718,-0.07198 0.016763,-0.143903 0.028763,-0.215769 -0.028982,-0.168875 -0.052953,-0.336714 -0.071908,-0.503461 0.053819,0.158864 0.087374,0.321899 0.100671,0.489077 0.0034,0.08591 -0.015771,0.162603 -0.057526,0.230153 z"
           id="path21"
           clip-path="none" />
        <path
           style="clip-rule:evenodd;fill-rule:evenodd;stroke-width:0.0399999;image-rendering:optimizeQuality;shape-rendering:geometricPrecision;text-rendering:geometricPrecision"
           fill="#9b9b9a"
           d="m 8.283761,10.334161 c 0.066529,0.127707 0.095292,0.266777 0.086289,0.417154 0.00564,0.109466 -0.013519,0.210159 -0.057526,0.302076 0.037363,-0.24123 0.027785,-0.480963 -0.028763,-0.71923 z"
           id="path22"
           clip-path="none" />
        <path
           style="clip-rule:evenodd;fill-rule:evenodd;stroke-width:0.0399999;image-rendering:optimizeQuality;shape-rendering:geometricPrecision;text-rendering:geometricPrecision"
           fill="#999998"
           d="m 8.7152081,10.36293 c 0.017948,0.012 0.027526,0.03119 0.028763,0.05754 -0.055858,0.209727 -0.07024,0.420692 -0.043145,0.632922 -0.055973,-0.230355 -0.05117,-0.460508 0.014382,-0.690462 z"
           id="path23"
           clip-path="none" />
        <path
           style="clip-rule:evenodd;fill-rule:evenodd;stroke-width:0.0399999;image-rendering:optimizeQuality;shape-rendering:geometricPrecision;text-rendering:geometricPrecision"
           fill="#7d7d7b"
           d="m 9.2904709,10.36293 c 0.1208052,0.216143 0.1543718,0.446297 0.100671,0.690461 -0.00221,-0.235418 -0.035753,-0.465572 -0.100671,-0.690461 z"
           id="path24"
           clip-path="none" />
        <path
           style="clip-rule:evenodd;fill-rule:evenodd;stroke-width:0.0399999;image-rendering:optimizeQuality;shape-rendering:geometricPrecision;text-rendering:geometricPrecision"
           fill="#bdbdbc"
           d="m 6.5292094,10.73693 c 0.00959,0 0.019176,0 0.028763,0 -0.010999,0.139876 0.00818,0.274113 0.057526,0.402769 -0.037102,-0.01605 -0.06107,-0.04482 -0.071908,-0.08631 -0.014341,-0.105065 -0.019136,-0.210533 -0.014382,-0.316461 z"
           id="path25"
           clip-path="none" />
        <path
           style="clip-rule:evenodd;fill-rule:evenodd;stroke-width:0.0399999;image-rendering:optimizeQuality;shape-rendering:geometricPrecision;text-rendering:geometricPrecision"
           fill="#898987"
           d="m 7.6509719,10.391699 c -0.051161,0.208146 -0.065543,0.41911 -0.043145,0.632923 0.038312,0.06214 0.081457,0.11968 0.1294341,0.172615 -0.053816,-0.01033 -0.09696,-0.0391 -0.1294341,-0.08631 -0.092842,-0.247559 -0.07846,-0.487322 0.043145,-0.719231 z"
           id="path26"
           clip-path="none" />
        <path
           style="clip-rule:evenodd;fill-rule:evenodd;stroke-width:0.0399999;image-rendering:optimizeQuality;shape-rendering:geometricPrecision;text-rendering:geometricPrecision"
           fill="#898988"
           d="m 8.3125241,11.053391 c -0.019185,0.07673 -0.067104,0.124657 -0.1438157,0.143846 0.038341,-0.05754 0.086289,-0.105496 0.1438157,-0.143846 z"
           id="path27"
           clip-path="none" />
        <path
           style="clip-rule:evenodd;fill-rule:evenodd;stroke-width:0.0399999;image-rendering:optimizeQuality;shape-rendering:geometricPrecision;text-rendering:geometricPrecision"
           fill="#7e7e7d"
           d="m 9.2617077,11.197237 c 0.017891,-0.03242 0.04185,-0.06119 0.071908,-0.08631 0.014928,0.05722 -0.00903,0.08599 -0.071908,0.08631 z"
           id="path28"
           clip-path="none" />
        <path
           style="clip-rule:evenodd;fill-rule:evenodd;stroke-width:0.0399999;image-rendering:optimizeQuality;shape-rendering:geometricPrecision;text-rendering:geometricPrecision"
           fill="#8d8d8b"
           d="m 7.2195248,11.08216 c -3.049e-4,0.04364 -0.019478,0.07722 -0.057526,0.100693 -0.1578607,0.08386 -0.3208528,0.09344 -0.4889734,0.02877 -0.025326,-0.02037 -0.044502,-0.04436 -0.057526,-0.07192 0.2151022,0.126815 0.4164442,0.107625 0.6040259,-0.05754 z"
           id="path29"
           clip-path="none" />
        <path
           style="clip-rule:evenodd;fill-rule:evenodd;stroke-width:0.0399999;image-rendering:optimizeQuality;shape-rendering:geometricPrecision;text-rendering:geometricPrecision"
           fill="#a1a1a0"
           d="m 7.7372613,11.197237 c 0.1438157,0.03835 0.2876314,0.03835 0.4314471,0 -0.061381,0.0441 -0.1332884,0.06329 -0.2157235,0.05754 -0.082435,0.0058 -0.154343,-0.01344 -0.2157236,-0.05754 z"
           id="path30"
           clip-path="none" />
        <path
           style="clip-rule:evenodd;fill-rule:evenodd;stroke-width:0.0399999;image-rendering:optimizeQuality;shape-rendering:geometricPrecision;text-rendering:geometricPrecision"
           fill="#9d9d9d"
           d="m 9.2617077,11.197237 c -0.1280534,0.07109 -0.262291,0.07589 -0.4026839,0.01439 0.1339499,0.02373 0.2681875,0.01893 0.4026839,-0.01439 z"
           id="path31"
           clip-path="none" />
      </g>
      <g
         id="g17"
         transform="matrix(0.14335773,0,0,0.14357614,-13.025903,-4.3626978)"
         style="stroke-width:6.97025"
         clip-path="none">
        <path
           d="M 16.559,8.137 A 7.2,7.2 0 0 0 15.325,6.429 7.586,7.586 0 0 0 15.135,8.612 5.161,5.161 0 0 1 16.559,8.137 Z"
           style="fill:#43b02a;fill-rule:evenodd;stroke:#43b02a;stroke-width:0.477385px"
           id="path1" />
        <path
           d="m 13.617,9.466 a 7.992,7.992 0 0 0 -1.993,-1.2 8.123,8.123 0 0 0 0.885,2.183 c 0,0.063 0.443,-0.475 1.108,-0.981 z"
           style="fill:#43b02a;fill-rule:evenodd;stroke:#43b02a;stroke-width:0.477385px"
           id="path2" />
        <path
           d="M 17.445,7.188 A 9.143,9.143 0 0 1 18.745,4.942 7.585,7.585 0 0 0 17,2.854 8.35,8.35 0 0 0 15.7,5.132 8.451,8.451 0 0 1 17.44,7.188 Z"
           style="fill:#43b02a;fill-rule:evenodd;stroke:#43b02a;stroke-width:0.477385px"
           id="path3" />
        <path
           d="m 11.592,11.744 v 0 A 10.276,10.276 0 0 0 8.9,11.586 a 7.478,7.478 0 0 0 1.93,1.9 6.858,6.858 0 0 1 0.759,-1.74 z"
           style="fill:#43b02a;fill-rule:evenodd;stroke:#43b02a;stroke-width:0.477385px"
           id="path4" />
        <path
           d="m 6.878,15.161 a 7.44,7.44 0 0 1 2.942,-1.139 10.019,10.019 0 0 1 -2.056,-2.278 7.639,7.639 0 0 0 -2.847,1.2 7.11,7.11 0 0 0 1.961,2.215 z"
           style="fill:#43b02a;fill-rule:evenodd;stroke:#43b02a;stroke-width:0.477385px"
           id="path5" />
        <path
           d="m 10.516,14.876 a 6.16,6.16 0 0 0 -2.815,0.886 9.936,9.936 0 0 0 2.815,1.2 v 0 a 7.683,7.683 0 0 1 0,-2.088 z"
           style="fill:#43b02a;fill-rule:evenodd;stroke:#43b02a;stroke-width:0.477385px"
           id="path6" />
        <path
           d="M 14.281,5.543 A 7.839,7.839 0 0 0 11.592,4.4 8.361,8.361 0 0 0 11.4,7 8.875,8.875 0 0 1 13.87,8.264 10.292,10.292 0 0 1 14.281,5.543 Z"
           style="fill:#43b02a;fill-rule:evenodd;stroke:#43b02a;stroke-width:0.477385px"
           id="path7" />
        <path
           d="m 24.025,3.234 a 20.488,20.488 0 0 1 0.917,4.112 6.823,6.823 0 0 0 -3.068,1.519 7.443,7.443 0 0 1 1.55,1.044 1.351,1.351 0 0 0 1.645,0.316 A 36.938,36.938 0 0 0 27.79,7.505 1.273,1.273 0 0 0 27.631,5.67 20.521,20.521 0 0 0 24.025,3.234 Z"
           style="fill:#43b02a;fill-rule:evenodd;stroke:#43b02a;stroke-width:0.477385px"
           id="path8" />
        <path
           d="M 4.379,12.06 A 8.67,8.67 0 0 1 7.226,10.8 7.763,7.763 0 0 1 6.467,7.826 14.687,14.687 0 0 0 4.379,12.06 Z"
           style="fill:#43b02a;fill-rule:evenodd;stroke:#43b02a;stroke-width:0.477385px"
           id="path9" />
        <path
           d="M 11.339,10.668 A 9.991,9.991 0 0 1 10.39,7.884 7.928,7.928 0 0 0 7.479,7.758 a 7.312,7.312 0 0 0 0.791,2.879 9.664,9.664 0 0 1 3.069,0.031 z"
           style="fill:#43b02a;fill-rule:evenodd;stroke:#43b02a;stroke-width:0.477385px"
           id="path10" />
        <path
           d="M 6.119,15.73 A 8.894,8.894 0 0 1 4.094,13.357 14.208,14.208 0 0 0 4.031,18.257 8.522,8.522 0 0 1 6.119,15.73 Z"
           style="fill:#43b02a;fill-rule:evenodd;stroke:#43b02a;stroke-width:0.477385px"
           id="path11" />
        <path
           d="M 22.538,3.487 A 7.581,7.581 0 0 0 20.323,5.1 11.789,11.789 0 0 1 21.146,7.6 9.775,9.775 0 0 1 23.455,6.271 6.593,6.593 0 0 0 22.538,3.487 Z"
           style="fill:#43b02a;fill-rule:evenodd;stroke:#43b02a;stroke-width:0.477385px"
           id="path12" />
        <path
           d="m 19.374,6.3 a 8.608,8.608 0 0 0 -0.822,1.676 v 0 A 9.645,9.645 0 0 1 19.881,8.166 7.568,7.568 0 0 0 19.374,6.3 Z"
           style="fill:#43b02a;fill-rule:evenodd;stroke:#43b02a;stroke-width:0.477385px"
           id="path13" />
        <path
           d="M 19.659,3.9 A 9.577,9.577 0 0 1 21.715,2.413 15.38,15.38 0 0 0 18.046,2 9.709,9.709 0 0 1 19.659,3.9 Z"
           style="fill:#43b02a;fill-rule:evenodd;stroke:#43b02a;stroke-width:0.477385px"
           id="path14" />
        <path
           d="m 27.378,23.892 c -1.993,-1.9 -2.4,-3.132 -4.081,-1.835 A 7.837,7.837 0 0 1 10.706,17.913 10.179,10.179 0 0 1 6.878,16.3 9.427,9.427 0 0 0 4.316,19.621 H 4.284 C 7.163,30.5 21.178,33.035 27.663,26.233 28.739,25.094 27.758,24.3 27.378,23.892 Z M 6.309,20.855 a 7.559,7.559 0 0 1 0.917,-2.025 6.872,6.872 0 0 0 2.151,0.538 c 1.013,2.689 4.556,6.264 8.922,6.264 a 9.632,9.632 0 0 0 6.3,-2.309 12.841,12.841 0 0 1 1.772,1.771 c 0.095,0.127 0.095,0.159 0.095,0.159 -5.766,5.03 -15.538,4.302 -20.157,-4.398 z"
           style="fill:#43b02a;stroke-width:6.97025"
           id="path15" />
        <path
           d="M 10.67,4.11 A 19.934,19.934 0 0 0 10.456,6.619 10.512,10.512 0 0 0 7.767,6.526 18,18 0 0 1 10.67,4.11 Z"
           style="fill:#43b02a;fill-rule:evenodd;stroke:#43b02a;stroke-width:0.464256px"
           id="path16" />
        <path
           d="M 12.26,3.274 A 9.107,9.107 0 0 1 14.705,4.327 14.083,14.083 0 0 1 15.958,2.19 12.106,12.106 0 0 0 12.26,3.274 Z"
           style="fill:#43b02a;fill-rule:evenodd;stroke:#43b02a;stroke-width:0.464256px"
           id="path17" />
      </g>
    </g>
  </g>
</svg>
