<?xml version="1.0" encoding="UTF-8" standalone="no"?>
<svg
   version="1.1"
   width="200"
   height="200"
   style="clip-rule:evenodd;fill-rule:evenodd;image-rendering:optimizeQuality;shape-rendering:geometricPrecision;text-rendering:geometricPrecision"
   id="svg3"
   sodipodi:docname="gatk.svg"
   inkscape:version="1.3 (0e150ed, 2023-07-21)"
   xmlns:inkscape="http://www.inkscape.org/namespaces/inkscape"
   xmlns:sodipodi="http://sodipodi.sourceforge.net/DTD/sodipodi-0.dtd"
   xmlns="http://www.w3.org/2000/svg"
   xmlns:svg="http://www.w3.org/2000/svg">
  <defs
     id="defs3">
    <clipPath
       clipPathUnits="userSpaceOnUse"
       id="clipPath8">
      <g
         id="g9">
        <rect
           width="256"
           height="256"
           fill="#ffffff"
           id="rect9"
           x="0"
           y="0" />
      </g>
    </clipPath>
  </defs>
  <sodipodi:namedview
     id="namedview3"
     pagecolor="#ffffff"
     bordercolor="#000000"
     borderopacity="0.25"
     inkscape:showpageshadow="2"
     inkscape:pageopacity="0.0"
     inkscape:pagecheckerboard="0"
     inkscape:deskcolor="#d1d1d1"
     inkscape:zoom="0.62843195"
     inkscape:cx="-478.17429"
     inkscape:cy="97.862625"
     inkscape:window-width="2304"
     inkscape:window-height="1268"
     inkscape:window-x="884"
     inkscape:window-y="28"
     inkscape:window-maximized="0"
     inkscape:current-layer="svg3" />
  <g
     id="g5"
     transform="translate(-516.84746,9.1949153)">
    <path
       d="M 196,0 H 60 C 26.8629,0 0,26.8629 0,60 v 136 c 0,33.137 26.8629,60 60,60 h 136 c 33.137,0 60,-26.863 60,-60 V 60 C 256,26.8629 229.137,0 196,0 Z"
       fill="#242938"
       id="path1-7"
       clip-path="url(#clipPath8)"
       transform="matrix(0.78125001,0,0,0.78125001,516.84746,-9.1949153)"
       style="fill:#2595ba;fill-opacity:1;stroke-width:1.28" />
    <g
       id="g4">
      <path
         style="stroke-width:0.999999"
         fill="#323232"
         d="m 610.49979,1.16641 c 43.11144,-0.26636 73.29667,19.18841 90.55508,58.36441 10.30463,31.50234 5.69143,60.58406 -13.83898,87.24576 -20.86317,24.47816 -47.43823,35.60951 -79.72458,33.39407 C 572.52369,175.27646 547.9545,156.7238 533.78368,124.51387 521.69836,91.23774 526.51192,60.75226 548.22436,33.05624 564.87705,14.35093 585.63553,3.72099 610.49979,1.16641 Z"
         id="path2" />
      <path
         style="stroke-width:0.999999"
         fill="#2595ba"
         d="m 609.2964,15.0054 c 30.33625,-1.42753 54.1032,10.20522 71.30084,34.8983 14.57967,24.9565 15.48222,50.42805 2.70763,76.41526 -0.30205,0.61433 -0.70278,0.71481 -1.20339,0.30084 -9.58018,-9.77814 -18.90646,-19.70611 -27.97881,-29.7839 -2.12519,-3.96817 -3.52894,-8.18004 -4.21187,-12.63559 -0.20036,-7.4207 -0.40133,-14.84201 -0.60169,-22.26271 -0.49279,-2.79277 -1.49581,-5.40009 -3.00848,-7.82203 -11.89731,-12.43156 -26.43787,-17.54597 -43.62288,-15.34323 -4.97301,0.87385 -9.78657,2.27784 -14.44068,4.21187 -1.33395,0.76319 -2.53752,1.66573 -3.61017,2.70763 0.48906,0.79056 1.09076,1.4925 1.80509,2.10593 8.32204,4.66175 16.54541,9.47531 24.66949,14.44068 4.60898,2.86286 6.11322,6.97484 4.51271,12.33474 -3.28706,9.28235 -8.60243,17.20427 -15.94491,23.76695 -2.83639,2.28223 -6.04523,3.08429 -9.62712,2.40678 -7.79261,-3.69561 -15.4141,-7.70711 -22.86441,-12.0339 -1.54196,-0.64923 -3.1465,-0.95007 -4.81356,-0.90254 3.34831,14.62179 10.36805,27.1569 21.05932,37.60593 5.23415,3.74134 11.05073,4.94473 17.44916,3.61017 5.12824,-1.54334 10.34313,-2.64625 15.64407,-3.30932 6.1415,0.27498 11.55675,2.38091 16.24576,6.3178 8.0224,7.22034 15.64407,14.84201 22.86441,22.8644 -31.39404,18.31981 -61.27782,16.11339 -89.65255,-6.61864 -20.14829,-19.12728 -28.07063,-42.4929 -23.76695,-70.09746 8.30171,-36.08214 30.66472,-57.14146 67.08899,-63.17796 z"
         id="path3" />
    </g>
  </g>
</svg>
