<?xml version="1.0" encoding="UTF-8" standalone="no"?>
<svg
   viewBox="0 0 200 200"
   version="1.1"
   id="svg2"
   sodipodi:docname="githubactions.svg"
   inkscape:version="1.3 (0e150ed, 2023-07-21)"
   width="200"
   height="200"
   xmlns:inkscape="http://www.inkscape.org/namespaces/inkscape"
   xmlns:sodipodi="http://sodipodi.sourceforge.net/DTD/sodipodi-0.dtd"
   xmlns="http://www.w3.org/2000/svg"
   xmlns:svg="http://www.w3.org/2000/svg">
  <defs
     id="defs2">
    <clipPath
       clipPathUnits="userSpaceOnUse"
       id="clipPath8">
      <g
         id="g9">
        <rect
           width="256"
           height="256"
           fill="#ffffff"
           id="rect9"
           x="0"
           y="0" />
      </g>
    </clipPath>
  </defs>
  <sodipodi:namedview
     id="namedview2"
     pagecolor="#ffffff"
     bordercolor="#000000"
     borderopacity="0.25"
     inkscape:showpageshadow="2"
     inkscape:pageopacity="0.0"
     inkscape:pagecheckerboard="0"
     inkscape:deskcolor="#d1d1d1"
     inkscape:zoom="1.84375"
     inkscape:cx="51.79661"
     inkscape:cy="161.35593"
     inkscape:window-width="2304"
     inkscape:window-height="1268"
     inkscape:window-x="884"
     inkscape:window-y="28"
     inkscape:window-maximized="0"
     inkscape:current-layer="svg2" />
  <g
     id="g3"
     transform="translate(39,241)">
    <path
       d="M 196,0 H 60 C 26.8629,0 0,26.8629 0,60 v 136 c 0,33.137 26.8629,60 60,60 h 136 c 33.137,0 60,-26.863 60,-60 V 60 C 256,26.8629 229.137,0 196,0 Z"
       fill="#242938"
       id="path1-9"
       clip-path="url(#clipPath8)"
       transform="matrix(0.78125001,0,0,0.78125001,-39,-241)"
       style="stroke-width:1.28" />
    <g
       id="g2"
       transform="matrix(1.3220339,0,0,1.3220339,-235.13559,-225.61017)"
       style="stroke-width:0.756411">
      <path
         fill="#2088ff"
         d="M 186.666,0 C 171.97,0 160,11.97 160,26.666 c 0,12.87 9.181,23.651 21.334,26.13 v 37.87 c 0,11.77 9.68,21.334 21.332,21.334 h 0.195 c 1.302,9.023 9.1,16 18.473,16 10.278,0 18.666,-8.388 18.666,-18.666 0,-10.278 -8.388,-18.668 -18.666,-18.668 -9.372,0 -17.17,6.977 -18.473,16 h -0.195 c -8.737,0 -16,-7.152 -16,-16 V 63.779 a 18.514,18.514 0 0 0 13.24,5.555 h 2.955 c 1.303,9.023 9.1,16 18.473,16 9.372,0 17.169,-6.977 18.47,-16 h 11.057 c 1.303,9.023 9.1,16 18.473,16 C 279.612,85.334 288,76.944 288,66.666 288,56.388 279.612,48 269.334,48 c -9.373,0 -17.171,6.977 -18.473,16 h -11.056 c -1.301,-9.023 -9.098,-16 -18.471,-16 -9.373,0 -17.171,6.977 -18.473,16 h -2.955 c -6.433,0 -11.793,-4.589 -12.988,-10.672 14.58,-0.136 26.416,-12.05 26.416,-26.662 C 213.334,11.97 201.362,0 186.666,0 Z m 0,5.334 A 21.292,21.292 0 0 1 208,26.666 21.294,21.294 0 0 1 186.666,48 21.292,21.292 0 0 1 165.334,26.666 21.29,21.29 0 0 1 186.666,5.334 Z m -5.215,7.541 C 178.67,12.889 176,15.123 176,18.166 v 17.043 c 0,4.043 4.709,6.663 8.145,4.533 l 13.634,-8.455 c 3.257,-2.02 3.274,-7.002 0.032,-9.045 l -13.635,-8.59 a 5.024,5.024 0 0 0 -2.725,-0.777 z m -0.117,5.291 13.635,8.588 -13.635,8.455 z m 40,35.168 A 13.29,13.29 0 0 1 234.666,66.666 13.293,13.293 0 0 1 221.334,80 13.294,13.294 0 0 1 208,66.666 13.293,13.293 0 0 1 221.334,53.334 Z m 48,0 A 13.29,13.29 0 0 1 282.666,66.666 13.293,13.293 0 0 1 269.334,80 13.294,13.294 0 0 1 256,66.666 13.293,13.293 0 0 1 269.334,53.334 Z m -42.568,6.951 a 2.667,2.667 0 0 0 -1.887,0.78 l -6.3,6.294 -2.093,-2.084 a 2.667,2.667 0 0 0 -3.771,0.006 2.667,2.667 0 0 0 0.008,3.772 l 3.974,3.96 a 2.667,2.667 0 0 0 3.766,-0.001 l 8.185,-8.174 a 2.667,2.667 0 0 0 0.002,-3.772 2.667,2.667 0 0 0 -1.884,-0.78 z m 48,0 a 2.667,2.667 0 0 0 -1.887,0.78 l -6.3,6.294 -2.093,-2.084 a 2.667,2.667 0 0 0 -3.771,0.006 2.667,2.667 0 0 0 0.008,3.772 l 3.974,3.96 a 2.667,2.667 0 0 0 3.766,-0.001 l 8.185,-8.174 a 2.667,2.667 0 0 0 0.002,-3.772 2.667,2.667 0 0 0 -1.884,-0.78 z M 221.334,96 a 13.293,13.293 0 0 1 13.332,13.334 13.29,13.29 0 0 1 -13.332,13.332 A 13.293,13.293 0 0 1 208,109.334 13.294,13.294 0 0 1 221.334,96 Z M 216,105.334 c -2.193,0 -4,1.807 -4,4 0,2.195 1.808,4 4,4 2.192,0 4,-1.805 4,-4 0,-2.193 -1.807,-4 -4,-4 z m 10.666,0 c -2.193,0 -4,1.807 -4,4 0,2.195 1.808,4 4,4 2.192,0 4,-1.805 4,-4 0,-2.193 -1.807,-4 -4,-4 z M 216,108 c 0.75,0 1.334,0.585 1.334,1.334 0,0.753 -0.583,1.332 -1.334,1.332 -0.75,0 -1.334,-0.58 -1.334,-1.332 0,-0.75 0.585,-1.334 1.334,-1.334 z m 10.666,0 c 0.75,0 1.334,0.585 1.334,1.334 0,0.753 -0.583,1.332 -1.334,1.332 -0.75,0 -1.332,-0.58 -1.332,-1.332 0,-0.75 0.583,-1.334 1.332,-1.334 z"
         id="path1"
         style="stroke-width:0.756411" />
      <path
         fill="#79b8ff"
         d="m 269.334,90.666 c -9.383,0 -17.188,6.993 -18.477,16.031 a 2.667,2.667 0 0 0 -0.265,-0.011 l -2.7,0.09 a 2.667,2.667 0 0 0 -2.578,2.751 2.667,2.667 0 0 0 2.752,2.578 l 2.7,-0.087 a 2.667,2.667 0 0 0 0.097,-0.006 C 252.17,121.029 259.965,128 269.334,128 279.612,128 288,119.612 288,109.334 288,99.056 279.612,90.666 269.334,90.666 Z m 0,5.334 a 13.293,13.293 0 0 1 13.332,13.334 13.29,13.29 0 0 1 -13.332,13.332 A 13.293,13.293 0 0 1 256,109.334 13.294,13.294 0 0 1 269.334,96 Z"
         id="path2"
         style="stroke-width:0.756411" />
    </g>
  </g>
</svg>
